<svg width="28" height="26" viewBox="0 0 28 26" fill="none" xmlns="http://www.w3.org/2000/svg">
<path d="M4.59091 5.27273C3.74242 5.57576 2.75758 5.84848 1.63636 6.09091L1 9.13636H4.54545L2.63636 18.1818C2.48485 18.8485 2.37879 19.4545 2.31818 20C2.28788 20.5455 2.27273 21 2.27273 21.3636C2.27273 22.3939 2.43939 23.2121 2.77273 23.8182C3.13636 24.4242 3.60606 24.8939 4.18182 25.2273C4.75758 25.5303 5.40909 25.7273 6.13636 25.8182C6.86364 25.9394 7.60606 26 8.36364 26C8.78788 26 9.27273 25.9848 9.81818 25.9545C10.3939 25.9545 10.9394 25.9242 11.4545 25.8636C12 25.8333 12.4848 25.803 12.9091 25.7727C13.3636 25.7424 13.697 25.697 13.9091 25.6364L14.5909 22.5C13.3788 22.5 12.5455 22.4242 12.0909 22.2727C11.6667 22.1212 11.4545 21.7424 11.4545 21.1364C11.4545 20.8333 11.5 20.4091 11.5909 19.8636C11.6818 19.3182 11.803 18.697 11.9545 18L13.8182 9.13636L14.4545 6.09091L15.7727 0H11.0909C10.3333 0.969697 9.62121 1.78788 8.95454 2.45454C8.31818 3.12121 7.63636 3.68182 6.90909 4.13636C6.21212 4.59091 5.43939 4.9697 4.59091 5.27273Z" fill="#E962AB"/>
<path d="M25.7967 7.64467C25.7488 8.33775 25.5679 8.94594 25.2541 9.46923C24.9679 9.99444 24.5913 10.4226 24.1242 10.7536C23.6848 11.0865 23.1825 11.3243 22.6175 11.4669C22.0503 11.6396 21.4628 11.7049 20.855 11.6629C19.8051 11.5903 18.9281 11.2268 18.2238 10.5725C17.5492 9.89004 17.2578 8.88585 17.3495 7.55997C17.3975 6.86689 17.5645 6.25775 17.8507 5.73254C18.1369 5.20733 18.4997 4.77826 18.9391 4.44532C19.3785 4.11238 19.867 3.87366 20.4044 3.72917C20.9716 3.55645 21.5452 3.49016 22.1254 3.53029C23.2582 3.60864 24.1757 3.99002 24.8778 4.67443C25.5821 5.3287 25.8884 6.31878 25.7967 7.64467Z" fill="#E962AB"/>
</svg>
